<svg xmlns="http://www.w3.org/2000/svg" width="37.633" height="37.6" viewBox="0 0 37.633 37.6">
  <g id="Raggruppa_11593" data-name="Raggruppa 11593" transform="translate(-115.368 -339.283)">
    <g id="Raggruppa_11592" data-name="Raggruppa 11592" transform="translate(115.368 339.283)">
      <path id="Tracciato_60299" data-name="Tracciato 60299" d="M152.5,341.744a.794.794,0,0,0-.308-.062.8.8,0,0,0-.57.236l-6.822,6.821a.4.4,0,0,1-.279.115.4.4,0,0,1-.063-.005.394.394,0,0,1-.289-.212l-.469-.937a.4.4,0,0,1,.074-.455l6.587-6.587a.806.806,0,0,0-.57-1.375h-3.6a.809.809,0,0,0-.4.106l-8.367,4.782c-.011.008-.023.016-.035.023a.426.426,0,0,0-.04.038c-.023.023-.047.045-.07.066l-.065.055c-.025.021-.058.048-.065.056a.3.3,0,0,1-.031.038l-5.157,7.219a.393.393,0,0,1-.288.164l-.033,0a.394.394,0,0,1-.279-.116l-1.4-1.4a.806.806,0,1,0-1.14,1.139l.511.511a.395.395,0,0,1-.176.659l-.171.042a2.075,2.075,0,0,0-.263.073,22.8,22.8,0,0,0-13.073,13.073,3.976,3.976,0,0,0,.148,3.313,2.666,2.666,0,0,0,1.827,1.382,2.884,2.884,0,0,0,.564.055,3.8,3.8,0,0,0,3.383-2.469,16.442,16.442,0,0,1,9.432-9.431,3.809,3.809,0,0,0,2.432-3.023.394.394,0,0,1,.392-.348h.584a.393.393,0,0,1,.371.262,3.189,3.189,0,0,0,1.634,1.815.4.4,0,0,1,.2.48l-.241.723a.392.392,0,0,1-.3.263,3.853,3.853,0,0,0-2.792,2.409,16.443,16.443,0,0,1-9.434,9.43,3.671,3.671,0,0,0-2.411,3.951,2.664,2.664,0,0,0,1.382,1.823,3.66,3.66,0,0,0,1.772.437,4.28,4.28,0,0,0,1.54-.288,22.8,22.8,0,0,0,13.071-13.071,4.244,4.244,0,0,0,.174-.647.394.394,0,0,1,.274-.294.385.385,0,0,1,.111-.016.394.394,0,0,1,.279.115l.771.771a.806.806,0,1,0,1.139-1.139l-1.4-1.4a.394.394,0,0,1,.05-.6l7.245-5.176a.82.82,0,0,0,.233-.256l4.8-8.4a.82.82,0,0,0,.107-.4v-3.6A.8.8,0,0,0,152.5,341.744Zm-17.712,11.675a.394.394,0,0,1-.371.262h-1.147a.395.395,0,0,1-.321-.624l5.348-7.486a.385.385,0,0,1,.125-.113l7.894-4.511a.392.392,0,0,1,.2-.052h.385a.394.394,0,0,1,.279.673l-5.151,5.15a.8.8,0,0,0-.151.931l.9,1.806a.393.393,0,0,1-.176.529l-2.766,1.384a1.352,1.352,0,0,1-1.062.077,5.846,5.846,0,0,0-.977-.162A3.208,3.208,0,0,0,134.791,353.418Zm1.413,1.067a1.594,1.594,0,1,1,1.594,1.594A1.6,1.6,0,0,1,136.2,354.486Zm15.186-8.717a.4.4,0,0,1-.052.2l-4.511,7.893a.4.4,0,0,1-.113.126l-7.736,5.526a.4.4,0,0,1-.229.074.391.391,0,0,1-.268-.105,2.867,2.867,0,0,0-.31-.254.394.394,0,0,1-.153-.451l.315-.943a.392.392,0,0,1,.274-.256,3.172,3.172,0,0,0,2.1-4.416.393.393,0,0,1,.181-.517l4.469-2.234a.8.8,0,0,0,.21-.151l5.151-5.151a.394.394,0,0,1,.279-.115.388.388,0,0,1,.151.03.4.4,0,0,1,.244.364Z" transform="translate(-115.368 -339.283)" fill="#016cb4"/>
    </g>
    <path id="Tracciato_60300" data-name="Tracciato 60300" d="M139.007,366.513A21.181,21.181,0,0,1,126.86,378.66a2.722,2.722,0,0,1-.967.186,2.021,2.021,0,0,1-.984-.239,1.087,1.087,0,0,1-.584-.721,2.044,2.044,0,0,1,1.414-2.139A18.062,18.062,0,0,0,136.092,365.4a2.146,2.146,0,0,1,1.865-1.442,1.271,1.271,0,0,1,.275.027,1.108,1.108,0,0,1,.723.582A2.345,2.345,0,0,1,139.007,366.513Z" transform="translate(-1.292 -3.57)" fill="#5d128e"/>
    <path id="Tracciato_60301" data-name="Tracciato 60301" d="M130.7,359.66a18.046,18.046,0,0,0-10.353,10.351,2.155,2.155,0,0,1-1.871,1.441,1.421,1.421,0,0,1-.25-.021l-.021,0a1.115,1.115,0,0,1-.72-.582,2.348,2.348,0,0,1-.054-1.953,21.187,21.187,0,0,1,12.148-12.148,2.669,2.669,0,0,1,.966-.186,2.04,2.04,0,0,1,.984.239,1.119,1.119,0,0,1,.584.724A2.037,2.037,0,0,1,130.7,359.66Z" transform="translate(-0.272 -2.5)" fill="#5d128e"/>
  </g>
</svg>
